<svg width="234.95258178710938px" height="102.56000366210937px" xmlns="http://www.w3.org/2000/svg" viewBox="132.52370910644532 23.719998168945317 234.95258178710938 102.56000366210937" style="background: rgba(0, 0, 0, 0);" preserveAspectRatio="xMidYMid"><defs><linearGradient id="editing-outline-gradient" x1="-0.41354545764260087" x2="1.4135454576426008" y1="0.09326335692419985" y2="0.9067366430758002"><stop offset="0" stop-color="#ee4208"></stop><stop offset="1" stop-color="#4139ff"></stop></linearGradient><filter id="editing-outline" x="-100%" y="-100%" width="300%" height="300%"><feMorphology in="SourceGraphic" operator="dilate" radius="2" result="outline"></feMorphology><feComposite operator="out" in="outline" in2="SourceAlpha"></feComposite></filter></defs><g filter="url(#editing-outline)"><g transform="translate(172.895017683506, 93.25000190734863)"><path d="M11.54 0L0.42 0L6.76-34.16L6.76-34.16Q11.91-34.74 19.42-34.74L19.42-34.74L19.42-34.74Q26.94-34.74 30.42-32.55L30.42-32.55L30.42-32.55Q33.90-30.37 33.90-25.97L33.90-25.97L33.90-25.97Q33.90-21.58 31.64-18.82L31.64-18.82L31.64-18.82Q29.38-16.07 25.48-15.18L25.48-15.18L25.48-15.18Q26.36-10.87 28.39-7.38L28.39-7.38L28.39-7.38Q30.26-4.11 32.45-3.07L32.45-3.07L32.45-3.07Q31.67-0.88 30.08 0.08L30.08 0.08L30.08 0.08Q28.50 1.04 26.23 1.04L26.23 1.04L26.23 1.04Q23.97 1.04 22.20-0.29L22.20-0.29L22.20-0.29Q20.44-1.61 19.03-4.06L19.03-4.06L19.03-4.06Q16.07-9.36 15.76-17.73L15.76-17.73L16.12-17.73L16.12-17.73Q19.97-17.84 21.89-19.84L21.89-19.84L21.89-19.84Q23.82-21.84 23.82-26.05L23.82-26.05L23.82-26.05Q23.82-31.30 19.40-31.51L19.40-31.51L18.25-31.51L18.25-31.51Q17.78-31.51 17.52-31.46L17.52-31.46L11.54 0ZM37.08-12.69L37.08-12.69L37.08-12.69Q37.08-22.52 42.17-28.70L42.17-28.70L42.17-28.70Q47.58-35.41 56.99-35.41L56.99-35.41L56.99-35.41Q63.80-35.41 67.24-32.11L67.24-32.11L67.24-32.11Q70.67-28.81 70.67-21.84L70.67-21.84L70.67-21.84Q70.67-11.23 65.26-5.04L65.26-5.04L65.26-5.04Q59.90 1.04 50.91 1.04L50.91 1.04L50.91 1.04Q43.89 1.04 40.48-2.47L40.48-2.47L40.48-2.47Q37.08-5.98 37.08-12.69ZM50.75-23.45L50.75-23.45L50.75-23.45Q48.41-14.09 48.41-6.71L48.41-6.71L48.41-6.71Q48.41-4.94 49.01-3.80L49.01-3.80L49.01-3.80Q49.61-2.65 51.19-2.65L51.19-2.65L51.19-2.65Q52.78-2.65 53.77-3.41L53.77-3.41L53.77-3.41Q54.76-4.16 55.54-5.88L55.54-5.88L55.54-5.88Q56.78-8.68 57.95-14.64L57.95-14.64L57.95-14.64Q59.12-20.59 59.23-23.06L59.23-23.06L59.23-23.06Q59.33-25.53 59.33-27.40L59.33-27.40L59.33-27.40Q59.33-29.28 58.76-30.47L58.76-30.47L58.76-30.47Q58.19-31.67 56.65-31.67L56.65-31.67L56.65-31.67Q55.12-31.67 54.08-30.73L54.08-30.73L54.08-30.73Q52.16-28.96 50.75-23.45ZM92.61-3.90L92.61-3.90L92.61-3.90Q92.61-7.54 94.07-14.82L94.07-14.82L86.37-14.82L83.51 0L72.64 0L79.25-34.32L90.22-34.32L87.20-18.98L94.90-18.98L97.76-34.32L108.73-34.32L108.73-34.32Q108.00-30.47 107.07-26.16L107.07-26.16L105.30-17.68L105.30-17.68Q103.32-7.80 103.32-3.48L103.32-3.48L103.32-3.48Q103.32-1.72 103.90-0.73L103.90-0.73L103.90-0.73Q101.30 1.04 98.25 1.04L98.25 1.04L98.25 1.04Q95.21 1.04 93.91-0.42L93.91-0.42L93.91-0.42Q92.61-1.87 92.61-3.90ZM120.74 0L109.41 0L116.01-34.32L127.45-34.32L120.74 0ZM132.76-25.32L132.76-25.32L132.76-25.32Q130.99-26.68 130.99-29.56L130.99-29.56L130.99-29.56Q130.99-32.45 132.89-33.96L132.89-33.96L132.89-33.96Q134.78-35.46 138.06-35.46L138.06-35.46L138.06-35.46Q140.14-35.46 145.08-34.74L145.08-34.74L148.62-34.22L148.62-34.22Q150.38-34.01 152.23-34.01L152.23-34.01L152.23-34.01Q154.08-34.01 155.32-34.79L155.32-34.79L155.32-34.79Q157.20-33.12 157.20-30.73L157.20-30.73L157.20-30.73Q157.20-28.34 155.06-26.62L155.06-26.62L155.06-26.62Q152.88-24.80 150.07-24.80L150.07-24.80L150.07-24.80Q148.72-24.80 146.54-25.17L146.54-25.17L146.54-25.17Q143.99-17.16 143.99-11.60L143.99-11.60L143.99-11.60Q143.99-6.03 146.80-3.12L146.80-3.12L146.80-3.12Q145.50-0.78 143.57 0.13L143.57 0.13L143.57 0.13Q141.65 1.04 138.76 1.04L138.76 1.04L138.76 1.04Q135.88 1.04 134.08-0.55L134.08-0.55L134.08-0.55Q132.29-2.13 132.29-5.41L132.29-5.41L132.29-5.41Q132.29-9.20 134.37-15.44L134.37-15.44L134.37-15.44Q136.45-21.63 139.57-26.36L139.57-26.36L139.57-26.36Q138.06-26.52 136.50-26.52L136.50-26.52L136.50-26.52Q133.28-26.52 132.76-25.32Z" fill="url(#editing-outline-gradient)"></path></g></g><style>text {
  font-size: 64px;
  font-family: Arial Black;
  dominant-baseline: central;
  text-anchor: middle;
}</style></svg>